<svg width="56" height="59" viewBox="0 0 56 59" fill="none" xmlns="http://www.w3.org/2000/svg">
<path d="M39.0399 3.52777H35.8094L39.1689 7.26131V9.03869H32.2494V6.95754H35.6086L32.2494 3.224V1.44482H39.0399V3.52777ZM30.8774 3.52777H27.6469L31.0065 7.26131V9.03869H24.0866V6.95754H27.4461L24.0866 3.224V1.44482H30.8774V3.52777ZM22.7951 3.6129H19.3091V6.87062H22.7951V9.03869H16.8311V1.44482H22.7951V3.6129Z" fill="#131313"/>
<path d="M12.0807 53.1929L8.53824 12.5049H47.4613L43.9158 53.1862L27.9759 57.7123L12.0807 53.1929Z" fill="#1572B6"/>
<path d="M28.0005 54.253L40.88 50.5961L43.9101 15.832H28.0005V54.253Z" fill="#33A9DC"/>
<path d="M28 30.5734H34.4479L34.8937 25.4634H28V20.4731H40.2189L40.1021 21.8119L38.9047 35.5632H28V30.5734Z" fill="white"/>
<path d="M28.0293 43.5332L28.0079 43.5395L22.5811 42.0386L22.2337 38.0586H17.3429L18.0259 45.894L28.007 48.7314L28.0297 48.7247V43.5332H28.0293Z" fill="#EBEBEB"/>
<path d="M34.034 35.3521L33.4469 42.035L28.0123 43.5373V48.7292L38.0017 45.894L38.0752 45.0508L38.9231 35.3521H34.034Z" fill="white"/>
<path d="M28.0171 20.4731V25.463H16.247L16.149 24.3415L15.9272 21.8119L15.8104 20.4731H28.0171ZM28 30.5738V35.5641H22.6419L22.5444 34.4426L22.3221 31.9126L22.2053 30.5738H28Z" fill="#EBEBEB"/>
</svg>
