<svg width="58" height="61" viewBox="0 0 58 61" fill="none" xmlns="http://www.w3.org/2000/svg">
<path d="M12.6214 54.8487L8.97687 12.9868H49.0231L45.375 54.8422L28.9755 59.4979L12.6214 54.8487Z" fill="#E44D26"/>
<path d="M29 55.9393L42.2512 52.1768L45.3691 16.4102H29V55.9393Z" fill="#F16529"/>
<path d="M29 31.9362H22.3658L21.9081 26.6781H29V21.5439H16.429L16.5486 22.9217L17.7811 37.0699H29V31.9362ZM29 45.2696L28.9778 45.2756L23.3948 43.7313L23.0378 39.637H18.0049L18.7073 47.6984L28.9769 50.6181L29 50.6112V45.2696Z" fill="#EBEBEB"/>
<path d="M12.7029 1.61035H15.2504V4.18858H17.5813V1.61035H20.1292V9.41649H17.5813V6.80254H15.2509V9.41649H12.7029V1.61035ZM23.4792 4.19925H21.2362V1.61035H28.271V4.19925H26.0271V9.41649H23.4792V4.19925ZM29.3875 1.61035H32.0437L33.6781 4.35331L35.3107 1.61035H37.9683V9.41649H35.4303V5.5473L33.6781 8.32274H33.6337L31.8801 5.5473V9.41649H29.387V1.61035H29.3875ZM39.2366 1.61035H41.785V6.83641H45.3678V9.41696H39.2366V1.61035Z" fill="black"/>
<path d="M28.9828 31.9362V37.0699H35.1562L34.5744 43.7285L28.9828 45.2742V50.6154L39.2606 47.6984L39.3358 46.8306L40.5139 33.3144L40.6363 31.9362H39.285H28.9828ZM28.9828 21.5439V26.6781H41.0926L41.1927 25.524L41.4215 22.9217L41.5416 21.5439H28.9828Z" fill="white"/>
</svg>
