<svg width="45" height="47" viewBox="0 0 45 47" fill="none" xmlns="http://www.w3.org/2000/svg">
<g clip-path="url(#clip0)">
<path d="M0.494995 0.603516H44.505V45.6744H0.494995V0.603516Z" fill="#F0DB4F"/>
<path d="M40.9032 34.9251C40.5808 32.869 39.2716 31.1419 35.3935 29.5315C34.0464 28.8975 32.5445 28.4435 32.0969 27.3979C31.938 26.7895 31.9169 26.4467 32.0175 26.0784C32.3061 24.8831 33.6994 24.5104 34.8036 24.8532C35.5148 25.0973 36.1881 25.6586 36.5941 26.554C38.4933 25.2946 38.4894 25.3029 39.8155 24.4374C39.33 23.6665 39.0709 23.3108 38.7531 22.981C37.6109 21.6745 36.0545 21.0016 33.5654 21.053L32.2689 21.2248C31.0264 21.5463 29.8424 22.2142 29.148 23.1096C27.0647 25.5304 27.6588 29.7673 30.1939 31.5109C32.6914 33.4306 36.3603 33.8674 36.829 35.6625C37.285 37.8601 35.2519 38.5716 33.2311 38.3188C31.7419 38.0016 30.9136 37.2265 30.0182 35.817C28.37 36.7937 28.37 36.7937 26.6755 37.7917C27.0773 38.6915 27.4996 39.0987 28.1732 39.8781C31.3611 43.1897 39.3388 43.027 40.7696 38.0146C40.8276 37.8425 41.213 36.6947 40.9032 34.9251ZM24.4202 21.3184H20.3038L20.2869 32.2173C20.2869 34.5352 20.404 36.6602 20.0359 37.3115C19.4337 38.5925 17.8731 38.4337 17.1619 38.1853C16.438 37.8209 16.0699 37.3028 15.6435 36.5705C15.5264 36.3602 15.4385 36.1975 15.409 36.1849L12.0621 38.2839C12.6186 39.4537 13.4385 40.469 14.4886 41.1285C16.0573 42.0927 18.1656 42.3883 20.3706 41.8698C21.8057 41.4418 23.0439 40.555 23.6921 39.2052C24.6294 37.4357 24.4283 35.2938 24.4199 32.9248C24.441 29.0598 24.4202 25.1956 24.4202 21.3184Z" fill="#323330"/>
</g>
<defs>
<clipPath id="clip0">
<rect y="0.0966797" width="45" height="46.0843" fill="white"/>
</clipPath>
</defs>
</svg>
