<svg width="79" height="79" viewBox="0 0 79 79" fill="none" xmlns="http://www.w3.org/2000/svg">
<g filter="url(#filter0_d)">
<mask id="mask0" mask-type="alpha" maskUnits="userSpaceOnUse" x="4" y="0" width="47" height="71">
<path fill-rule="evenodd" clip-rule="evenodd" d="M4.28125 0.3125H50.2448V70.4374H4.28125V0.3125Z" fill="white"/>
</mask>
<g mask="url(#mask0)">
<g style="mix-blend-mode:multiply">
<path fill-rule="evenodd" clip-rule="evenodd" d="M5.11502 37.3884L37.3302 69.6036C38.4419 70.7153 40.2445 70.7153 41.3573 69.6036L49.4103 61.5496C50.523 60.4379 50.523 58.6353 49.4103 57.5225L27.2632 35.3754L49.4103 13.2273C50.523 12.1156 50.523 10.3119 49.4103 9.20023L41.3573 1.14617C40.2445 0.034479 38.4419 0.034479 37.3302 1.14617L5.11502 33.3614C4.00333 34.4731 4.00333 36.2767 5.11502 37.3884Z" fill="#004AFF"/>
</g>
</g>
<g style="mix-blend-mode:multiply">
<mask id="mask1" mask-type="alpha" maskUnits="userSpaceOnUse" x="28" y="0" width="47" height="71">
<path fill-rule="evenodd" clip-rule="evenodd" d="M28.4424 0.312599H74.406V70.4375H28.4424V0.312599Z" fill="white"/>
</mask>
<g mask="url(#mask1)">
<path fill-rule="evenodd" clip-rule="evenodd" d="M73.5722 33.3616L41.357 1.14636C40.2453 0.0346773 38.4427 0.0346773 37.33 1.14636L29.2769 9.20043C28.1642 10.3121 28.1642 12.1147 29.2769 13.2275L51.424 35.3746L29.2769 57.5227C28.1642 58.6344 28.1642 60.4381 29.2769 61.5498L37.33 69.6038C38.4427 70.7155 40.2453 70.7155 41.357 69.6038L73.5722 37.3886C74.6839 36.2769 74.6839 34.4733 73.5722 33.3616Z" fill="#24C9FC"/>
</g>
</g>
</g>
<defs>
<filter id="filter0_d" x="0.28125" y="0.3125" width="78.1247" height="78.125" filterUnits="userSpaceOnUse" color-interpolation-filters="sRGB">
<feFlood flood-opacity="0" result="BackgroundImageFix"/>
<feColorMatrix in="SourceAlpha" type="matrix" values="0 0 0 0 0 0 0 0 0 0 0 0 0 0 0 0 0 0 127 0"/>
<feOffset dy="4"/>
<feGaussianBlur stdDeviation="2"/>
<feColorMatrix type="matrix" values="0 0 0 0 0 0 0 0 0 0 0 0 0 0 0 0 0 0 0.25 0"/>
<feBlend mode="normal" in2="BackgroundImageFix" result="effect1_dropShadow"/>
<feBlend mode="normal" in="SourceGraphic" in2="effect1_dropShadow" result="shape"/>
</filter>
</defs>
</svg>
