<svg width="82" height="84" viewBox="0 0 82 84" fill="none" xmlns="http://www.w3.org/2000/svg">
<path d="M73.2395 52.9762C73.0537 52.9762 72.8692 52.9264 72.7065 52.8293L71.0088 51.8006C70.7551 51.6556 70.8788 51.6038 70.9627 51.5742C71.3009 51.4535 71.3695 51.4253 71.7302 51.2167C71.768 51.195 71.8173 51.2029 71.8564 51.2265L73.16 52.0197C73.2074 52.0466 73.2747 52.0466 73.3176 52.0197L78.4023 49.0143C78.4503 48.9867 78.4804 48.931 78.4804 48.8732V42.8637C78.4804 42.8047 78.4503 42.7502 78.4016 42.72L73.3189 39.7172C73.2715 39.6897 73.2094 39.6897 73.162 39.7172L68.0799 42.7207C68.0312 42.7502 67.9998 42.8066 67.9998 42.8637V48.8732C67.9998 48.931 68.0312 48.9854 68.0799 49.0123L69.4726 49.837C70.2285 50.2234 70.6917 49.7681 70.6917 49.3102V43.3761C70.6917 43.2928 70.7577 43.2265 70.8391 43.2265H71.4842C71.5642 43.2265 71.6309 43.2928 71.6309 43.3761V49.3102C71.6309 50.3428 71.0818 50.9352 70.1254 50.9352C69.8313 50.9352 69.6001 50.9352 68.9543 50.6098L67.6212 49.8239C67.2913 49.6284 67.0882 49.2636 67.0882 48.8739V42.8644C67.0882 42.474 67.2913 42.1099 67.6212 41.9157L72.7058 38.9063C73.0274 38.7207 73.4547 38.7207 73.7738 38.9063L78.8584 41.9157C79.1877 42.1105 79.392 42.4747 79.392 42.8644V48.8739C79.392 49.2642 79.1877 49.627 78.8584 49.8239L73.7738 52.8299C73.6123 52.9264 73.4285 52.9762 73.2395 52.9762ZM74.8109 48.8358C72.5848 48.8358 72.119 47.7894 72.119 46.9123C72.119 46.8296 72.185 46.762 72.2664 46.762H72.9236C72.9973 46.762 73.0582 46.8158 73.0697 46.8893C73.1684 47.5749 73.465 47.9206 74.8109 47.9206C75.8814 47.9206 76.3375 47.6726 76.3375 47.0901C76.3375 46.7542 76.2081 46.5055 74.5438 46.3382C73.1524 46.1972 72.292 45.8829 72.292 44.742C72.292 43.6917 73.1568 43.0645 74.6059 43.0645C76.235 43.0645 77.0409 43.6438 77.1428 44.8863C77.1466 44.9283 77.1319 44.9697 77.1044 45.0018C77.0762 45.0313 77.0377 45.0497 76.9967 45.0497H76.3363C76.2677 45.0497 76.2075 45.0005 76.1934 44.9323C76.0345 44.2106 75.6501 43.9803 74.6053 43.9803C73.4361 43.9803 73.3003 44.3982 73.3003 44.7099C73.3003 45.0884 73.4605 45.1986 75.0396 45.4125C76.6021 45.6244 77.3446 45.9236 77.3446 47.0487C77.3452 48.1857 76.4215 48.8358 74.8109 48.8358Z" fill="#83CD29"/>
<path d="M62.7697 44.8946C62.9702 44.7745 63.0939 44.5554 63.0939 44.3173V42.7729C63.0939 42.5354 62.9709 42.3163 62.7697 42.1962L57.4115 39.0104C57.2097 38.8903 56.9612 38.8897 56.7587 39.0091L51.3672 42.1969C51.1661 42.3163 51.0418 42.5361 51.0418 42.7742V49.1485C51.0418 49.388 51.1674 49.6097 51.3711 49.7285L56.7286 52.8546C56.9259 52.9707 57.1681 52.9714 57.3673 52.8585L60.6076 51.0137C60.7108 50.9546 60.7748 50.8444 60.7755 50.725C60.7761 50.6043 60.7133 50.4928 60.6115 50.4331L55.1866 47.2446C55.0848 47.1849 55.0227 47.0747 55.0227 46.9559V44.9576C55.0227 44.8382 55.0848 44.7286 55.1854 44.6696L56.8747 43.6724C56.9746 43.6127 57.0989 43.6127 57.1995 43.6724L58.8888 44.6696C58.99 44.7293 59.0522 44.8388 59.0522 44.9576V46.5295C59.0522 46.6496 59.1143 46.7598 59.2149 46.8188C59.3161 46.8785 59.4404 46.8785 59.5416 46.8182L62.7697 44.8946Z" fill="#404137"/>
<path d="M57.0054 44.5953C57.0445 44.573 57.0919 44.573 57.1303 44.5953L58.1649 45.2074C58.2033 45.2304 58.2271 45.2731 58.2271 45.3183V46.5419C58.2271 46.5878 58.2033 46.6298 58.1649 46.6528L57.1303 47.2642C57.0919 47.2872 57.0438 47.2872 57.0054 47.2642L55.9714 46.6528C55.9323 46.6298 55.9086 46.5878 55.9086 46.5419V45.3183C55.9086 45.2731 55.9323 45.2304 55.9714 45.2074L57.0054 44.5953Z" fill="#83CD29"/>
<path d="M42.9751 47.1409C42.9751 47.1999 42.9443 47.255 42.8937 47.2852L41.0423 48.3782C40.9917 48.4084 40.9296 48.4084 40.8796 48.3782L39.0282 47.2852C38.9776 47.255 38.9468 47.1999 38.9468 47.1409V44.9509C38.9468 44.8919 38.9782 44.8361 39.0282 44.8059L40.8796 43.7116C40.9302 43.6808 40.9923 43.6808 41.043 43.7116L42.895 44.8059C42.945 44.8361 42.9757 44.8919 42.9757 44.9509V47.1409H42.9751ZM43.4754 30.9256C43.3748 30.8686 43.2518 30.8699 43.1519 30.9296C43.0526 30.9899 42.9911 31.0988 42.9911 31.2169V39.69C42.9911 39.7726 42.9475 39.85 42.8777 39.892C42.8072 39.9334 42.7201 39.9334 42.6496 39.892L41.2992 39.0949C41.0981 38.9762 40.8501 38.9762 40.649 39.0949L35.2562 42.2821C35.0544 42.4015 34.9301 42.6219 34.9301 42.8601V49.2363C34.9301 49.4745 35.0544 49.6943 35.2556 49.8143L40.6483 53.0034C40.8495 53.1228 41.0981 53.1228 41.2998 53.0034L46.6939 49.8143C46.8951 49.6943 47.0193 49.4745 47.0193 49.2363V33.3419C47.0193 33.1005 46.8912 32.8774 46.6856 32.7593L43.4754 30.9256Z" fill="#404137"/>
<path d="M24.4962 38.9748C24.6974 38.8554 24.9459 38.8554 25.1471 38.9748L30.5399 42.1613C30.741 42.2807 30.8653 42.5011 30.8653 42.7393V49.1175C30.8653 49.3557 30.741 49.5761 30.5399 49.6955L25.1477 52.8846C24.9466 53.0034 24.698 53.0034 24.4962 52.8846L19.1053 49.6955C18.9042 49.5761 18.7799 49.3557 18.7799 49.1175V42.7386C18.7799 42.5011 18.9042 42.2807 19.1053 42.1613L24.4962 38.9748Z" fill="#83CD29"/>
<path d="M14.6895 42.6862C14.6895 42.446 14.5665 42.2256 14.3641 42.1068L8.97325 38.9295C8.881 38.8744 8.77914 38.8462 8.676 38.8423H8.62027C8.51777 38.8462 8.41527 38.8744 8.32302 38.9295L2.93152 42.1068C2.731 42.2256 2.60544 42.446 2.60544 42.6862L2.61697 51.2412C2.61697 51.3606 2.67783 51.4715 2.77969 51.5292C2.87963 51.5909 3.00327 51.5909 3.1032 51.5292L6.30633 49.6503C6.50877 49.5269 6.63241 49.3098 6.63241 49.0716V45.0749C6.63241 44.8361 6.75541 44.6163 6.9572 44.4969L8.32173 43.6926C8.42295 43.6315 8.53442 43.6027 8.64717 43.6027C8.75864 43.6027 8.87267 43.6315 8.97197 43.6926L10.3352 44.4969C10.537 44.6163 10.6613 44.8361 10.6613 45.0749V49.0716C10.6613 49.3098 10.7862 49.5282 10.9874 49.6503L14.1905 51.5292C14.2911 51.5909 14.4166 51.5909 14.5159 51.5292C14.6152 51.4708 14.6774 51.3599 14.6774 51.2412L14.6895 42.6862Z" fill="#404137"/>
</svg>
