<svg width="41" height="51" viewBox="0 0 41 51" fill="none" xmlns="http://www.w3.org/2000/svg">
<path d="M20.0862 22.6599C22.1131 22.6599 23.7562 20.9772 23.7562 18.9015C23.7562 16.8258 22.1131 15.1431 20.0862 15.1431C18.0594 15.1431 16.4163 16.8258 16.4163 18.9015C16.4163 20.9772 18.0594 22.6599 20.0862 22.6599Z" fill="#61DAFB"/>
<path d="M20.0861 32.7228C22.9669 35.5921 25.8081 37.2895 28.0969 37.2895C28.8467 37.2895 29.557 37.1278 30.1489 36.7641C32.2009 35.5517 32.9507 32.5208 32.2404 28.1966C32.122 27.4287 31.9642 26.6609 31.7669 25.8526C32.5561 25.6102 33.2664 25.3677 33.9767 25.1252C37.9624 23.5491 40.1723 21.3668 40.1723 18.9825C40.1723 16.5577 37.9624 14.3754 33.9767 12.8397C33.2664 12.5568 32.5561 12.3143 31.7669 12.1123C31.9642 11.304 32.122 10.5362 32.2404 9.76832C32.9113 5.36333 32.1615 2.29195 30.1095 1.07957C29.5175 0.715851 28.8072 0.554199 28.0574 0.554199C25.8081 0.554199 22.9274 2.25154 20.0467 5.12085C17.2054 2.25154 14.3641 0.554199 12.0754 0.554199C11.3256 0.554199 10.6153 0.715851 10.0233 1.07957C7.97131 2.29195 7.22154 5.32291 7.93185 9.64709C8.05024 10.4149 8.20808 11.1828 8.40539 11.991C7.61616 12.2335 6.90584 12.476 6.19552 12.7185C2.20987 14.2946 0 16.4769 0 18.8612C0 21.286 2.20987 23.4683 6.19552 25.004C6.90584 25.2869 7.61616 25.5293 8.40539 25.7314C8.20808 26.5397 8.05024 27.3075 7.93185 28.0753C7.261 32.3995 8.01077 35.4709 10.0233 36.6429C10.6153 37.0066 11.3256 37.1682 12.0754 37.1682C14.3641 37.2491 17.2054 35.5517 20.0861 32.7228ZM17.8763 27.2671C18.5866 27.3075 19.3364 27.3075 20.0861 27.3075C20.8359 27.3075 21.5857 27.3075 22.296 27.2671C21.5857 28.237 20.8359 29.1261 20.0861 29.9747C19.3364 29.1261 18.5866 28.237 17.8763 27.2671ZM12.983 23.1046C13.3776 23.7916 13.7328 24.4382 14.1668 25.0848C12.9435 24.9231 11.7991 24.7211 10.6942 24.4786C11.0493 23.3874 11.444 22.2559 11.9175 21.1243C12.2332 21.7709 12.5884 22.458 12.983 23.1046ZM10.6942 13.3651C11.7991 13.1226 12.9435 12.9205 14.1668 12.7589C13.7722 13.4055 13.3776 14.0521 12.983 14.7391C12.5884 15.4261 12.2332 16.0727 11.9175 16.7597C11.4045 15.5878 11.0099 14.4562 10.6942 13.3651ZM12.8646 18.9016C13.3776 17.8105 13.9301 16.7193 14.5615 15.6282C15.1534 14.5775 15.8242 13.5267 16.4951 12.476C17.679 12.3952 18.8628 12.3547 20.0861 12.3547C21.3489 12.3547 22.5328 12.3952 23.6772 12.476C24.3875 13.5267 25.0189 14.5775 25.6108 15.6282C26.2422 16.7193 26.7947 17.8105 27.3077 18.9016C26.7947 19.9928 26.2422 21.0839 25.6108 22.1751C25.0189 23.2258 24.348 24.2765 23.6772 25.3273C22.4933 25.4081 21.3094 25.4485 20.0861 25.4485C18.8233 25.4485 17.6395 25.4081 16.4951 25.3273C15.7848 24.2765 15.1534 23.2258 14.5615 22.1751C13.9301 21.0839 13.3776 19.9928 12.8646 18.9016ZM28.2942 16.7193L27.2287 14.6987C26.8341 14.0117 26.479 13.3651 26.0449 12.7185C27.2682 12.8801 28.4126 13.0822 29.5175 13.3247C29.1624 14.4562 28.7678 15.5878 28.2942 16.7193ZM28.2942 21.0839C28.7678 22.2155 29.1624 23.347 29.5175 24.4382C28.4126 24.6807 27.2682 24.8827 26.0449 25.0444C26.4395 24.3978 26.8341 23.7512 27.2287 23.0641C27.5839 22.458 27.9391 21.7709 28.2942 21.0839ZM29.2018 35.1072C28.8861 35.3092 28.4915 35.3901 28.0574 35.3901C26.1238 35.3901 23.7166 33.7735 21.3489 31.3488C22.4933 30.096 23.5982 28.6815 24.7032 27.1054C26.5579 26.9438 28.3337 26.6609 29.9911 26.2568C30.1884 26.9842 30.3068 27.7116 30.4252 28.4391C30.9776 31.8741 30.5435 34.3393 29.2018 35.1072ZM31.2539 13.8096C35.6736 15.1028 38.3175 17.083 38.3175 18.9016C38.3175 20.4777 36.5023 22.0538 33.3059 23.3066C32.6745 23.5491 31.9642 23.7916 31.2539 23.9936C30.7409 22.3367 30.1095 20.6394 29.3202 18.9016C30.1095 17.1639 30.7803 15.4665 31.2539 13.8096ZM28.0969 2.41319C28.531 2.41319 28.8861 2.49402 29.2413 2.69608C30.5435 3.46392 31.0171 5.88869 30.4646 9.3642C30.3462 10.0512 30.1884 10.7786 30.0305 11.5465C28.3731 11.1828 26.5973 10.8999 24.7426 10.6978C23.6772 9.12172 22.5328 7.70727 21.3884 6.45447C23.7561 4.07012 26.1633 2.41319 28.0969 2.41319ZM22.296 10.5362C21.5857 10.4958 20.8359 10.4958 20.0861 10.4958C19.3364 10.4958 18.5866 10.4958 17.8763 10.5362C18.5866 9.56626 19.3364 8.67718 20.0861 7.82851C20.8359 8.67718 21.5857 9.60667 22.296 10.5362ZM10.9704 2.69608C11.2861 2.49402 11.6807 2.41319 12.1148 2.41319C14.0485 2.41319 16.4556 4.0297 18.8233 6.45447C17.6789 7.70727 16.574 9.12172 15.4691 10.6978C13.6144 10.8595 11.8386 11.1424 10.1812 11.5465C9.98387 10.8191 9.86548 10.0916 9.7471 9.3642C9.19463 5.92911 9.62871 3.50434 10.9704 2.69608ZM8.9184 23.9936C4.49866 22.7004 1.85471 20.7202 1.85471 18.9016C1.85471 17.3255 3.66996 15.7494 6.86638 14.4966C7.49777 14.2541 8.20808 14.0117 8.9184 13.8096C9.4314 15.4665 10.0628 17.1639 10.852 18.9016C10.0628 20.6394 9.39194 22.3771 8.9184 23.9936ZM9.7471 28.4391C9.86548 27.752 10.0233 27.0246 10.1812 26.2568C11.8386 26.6205 13.6144 26.9034 15.4691 27.1054C16.5346 28.6815 17.6789 30.096 18.8233 31.3488C16.4556 33.7331 14.0485 35.3901 12.1148 35.3901C11.6807 35.3901 11.3256 35.3092 10.9704 35.1072C9.62871 34.3393 9.19463 31.8741 9.7471 28.4391ZM8.0897 45.0891C8.95786 43.998 8.99732 42.7856 8.52378 41.5732C8.05024 40.3608 7.06369 39.7951 5.84037 39.7546C4.38028 39.7142 2.88072 39.7546 1.42063 39.7546H1.1444V50.2216H2.32825V46.2611H4.18297C4.41974 46.2611 4.61705 46.3419 4.73543 46.544L7.10315 50.3024C7.14261 50.3832 7.261 50.5045 7.33992 50.5045H8.87894C7.93185 49.0092 7.02423 47.5947 6.07714 46.1399C6.90584 46.0186 7.61615 45.7357 8.0897 45.0891ZM2.32825 45.0083V41.0074H2.76234C3.66996 41.0074 4.61705 40.967 5.52467 41.0479C6.59014 41.0883 7.33992 41.9369 7.33992 43.0281C7.33992 44.1192 6.47176 44.9679 5.40629 45.0083C4.4592 45.0487 3.51211 45.0083 2.32825 45.0083ZM17.6 45.5337C16.9686 42.7048 14.4431 41.9774 12.5094 42.8664C11.0099 43.5535 10.339 44.8871 10.2996 46.544C10.2601 47.7968 10.6153 48.9284 11.5623 49.777C12.6278 50.7469 13.9301 50.8682 15.2718 50.6257C16.0215 50.464 16.6924 50.1003 17.2054 49.5346C17.0081 49.2517 16.8108 48.9688 16.6135 48.7263C15.5085 49.6962 14.2852 50.0195 12.9435 49.3729C12.0754 48.9284 11.6413 47.8372 11.5623 47.029H17.679V46.5036C17.7184 46.1399 17.6789 45.8166 17.6 45.5337ZM11.6413 46.1803C11.5229 44.9679 12.7067 43.6747 14.009 43.6747C15.5085 43.6343 16.4556 44.5638 16.4951 46.1803H11.6413ZM23.7561 42.6644C23.1642 42.5431 22.5328 42.5027 21.9408 42.5431C20.9938 42.624 20.1651 43.0685 19.4942 43.7959C19.6915 44.0788 19.8494 44.3617 20.0861 44.685C20.1651 44.6042 20.244 44.5234 20.3229 44.4829C20.9543 43.8768 21.7041 43.5535 22.6117 43.6343C23.322 43.6747 23.9929 43.9172 24.1902 44.6446C24.348 45.2104 24.3086 45.8166 24.348 46.4228C24.2296 46.4228 24.1902 46.3824 24.1507 46.3419C23.2036 45.5337 22.1382 45.372 20.9938 45.6549C19.9283 45.9378 19.2574 46.7865 19.1785 47.8776C19.0996 49.1304 19.652 50.0599 20.7175 50.5045C21.3884 50.7873 22.1381 50.7873 22.8485 50.6257C23.4009 50.5045 23.6377 50.1812 24.4269 49.7366V50.262H25.5319C25.5319 48.6455 25.5713 46.6652 25.5319 44.8062C25.5319 43.6343 24.861 42.9068 23.7561 42.6644ZM24.3086 47.7564C24.2691 47.8776 24.3086 47.9989 24.3086 48.1201C24.3086 48.9688 24.1112 49.2517 23.322 49.575C22.7695 49.777 22.1776 49.8579 21.5857 49.6558C20.9148 49.4537 20.4413 48.8475 20.4413 48.1605C20.4018 47.4735 20.8359 46.7865 21.5068 46.5844C22.4144 46.2611 23.2431 46.4632 23.9929 47.029C24.2296 47.231 24.3875 47.4331 24.3086 47.7564ZM30.4646 43.7555C31.4906 43.4322 32.4377 43.6343 33.148 44.5234L33.2664 44.6042C33.5427 44.3617 33.7794 44.1192 34.0951 43.8363C33.9767 43.7151 33.9373 43.6343 33.8583 43.513C32.714 42.2602 30.4646 42.0986 29.0835 43.1089C27.1498 44.5638 27.1893 47.3927 28.1364 48.8879C29.044 50.3024 30.3462 50.7873 31.8853 50.5853C32.7929 50.464 33.5426 50.0195 34.1346 49.2517C33.8583 49.0092 33.5821 48.7667 33.3059 48.4838C33.227 48.5646 33.1875 48.6051 33.148 48.6859C32.0826 49.8983 30.3068 49.777 29.3597 48.4838C28.8072 47.716 28.6888 46.8269 28.8467 45.9378C28.9256 44.9275 29.4386 44.1192 30.4646 43.7555ZM38.6727 49.2517C38.5938 49.2921 38.5543 49.3325 38.5543 49.3325C38.2386 49.575 37.9229 49.6154 37.5678 49.4941C37.2126 49.3325 37.1731 49.0092 37.1337 48.6859V44.0788C37.1337 43.998 37.1337 44.1596 37.1731 43.7555H38.6727V42.5431H37.0942V40.5225H35.9104V42.7048H34.8844C34.8054 42.7048 34.687 42.7856 34.687 42.8664C34.6476 43.1493 34.687 43.3514 34.687 43.7555H35.9498V48.9284C35.9498 49.575 36.1077 50.1407 36.6601 50.464C37.2521 50.8278 38.3965 50.7469 38.9095 50.3024C38.9884 50.262 39.0279 50.1003 39.0279 50.0599C38.9095 49.8174 38.7911 49.5345 38.6727 49.2517Z" fill="#61DAFB"/>
</svg>
