<svg width="43" height="45" viewBox="0 0 43 45" fill="none" xmlns="http://www.w3.org/2000/svg">
<g clip-path="url(#clip0)">
<path d="M43 22.5483C43 24.5399 42.742 26.4702 42.2576 28.3054C41.1256 32.5967 38.7588 36.3685 35.5707 39.1967C31.7998 42.5426 26.8811 44.5664 21.5 44.5664C9.62587 44.5664 0 34.7086 0 22.5483C0 10.3881 9.62587 0.530273 21.5 0.530273C33.3741 0.530273 43 10.3881 43 22.5483Z" fill="#0078CF"/>
<path d="M42.2576 28.3056C41.1256 32.5969 38.7588 36.3687 35.5707 39.1969C35.2592 39.214 34.9336 39.2221 34.5957 39.2221C30.1316 39.2221 27.6508 36.3652 26.4178 34.2218L30.4651 31.7315C30.4651 31.7315 31.8419 34.7278 34.4229 34.7278C37.0046 34.7278 38.0375 33.8462 38.0375 31.8196C38.0375 29.3517 29.6902 28.471 28.3993 24.2409C27.1085 20.0108 28.8293 14.0173 34.8537 14.4586C38.6184 14.7336 40.736 16.6271 41.7951 18.0084L37.7794 20.9795C36.9186 18.4245 33.3908 18.4245 32.7019 20.5391C32.0139 22.6546 34.3367 23.8877 37.9514 25.1215C39.8084 25.7551 41.3019 26.9243 42.2576 28.3056Z" fill="#F2F2F2"/>
<path d="M25.2745 15.1333H6.97961V19.5555H13.684V38.7566H18.5702V19.5555H25.2745V15.1333Z" fill="#F2F2F2"/>
</g>
<defs>
<clipPath id="clip0">
<rect y="0.530273" width="43" height="44.0361" fill="white"/>
</clipPath>
</defs>
</svg>
