<svg width="96" height="24" viewBox="0 0 96 24" fill="none" xmlns="http://www.w3.org/2000/svg">
<path d="M20.8786 18.3603L11.1968 23.8018V19.56L17.2331 16.259L20.8865 18.3525L20.8786 18.3603ZM21.5414 17.7644V6.37969L17.9985 8.41044V15.7259L21.5651 17.7644H21.5414ZM0.662813 18.3603L10.3446 23.8018V19.56L4.30828 16.2669L0.662813 18.3603ZM0 17.7644V6.37969L3.54289 8.41044V15.7259L0 17.7644ZM0.418203 5.64267L10.3525 0.0600586V4.15292L3.98477 7.63421H3.93742L0.418203 5.64267ZM21.1311 5.64267L11.1968 0.0600586V4.15292L17.5566 7.62637L17.6198 7.68126L21.139 5.66619L21.1311 5.64267Z" fill="#8ED6FB"/>
<path d="M10.3446 18.5953L4.39505 15.3413V8.89626L10.3525 12.3148L10.3446 18.5953ZM11.1968 18.5953L17.1542 15.3413V8.89626L11.1968 12.3148V18.5953ZM4.79747 8.15139L10.7707 4.88965L16.7518 8.15139L10.7707 11.6013L4.79747 8.15139Z" fill="#1C78C0"/>
<path d="M35.4604 16.3063H38.0801L40.7471 7.46975H38.1985L36.6203 13.7423L34.9317 7.46975H32.7224L31.018 13.7423L29.4399 7.46975H26.907L29.5582 16.3063H32.1779L33.8271 10.6452L35.4604 16.3063ZM40.8813 11.9155C40.8515 12.5321 40.9525 13.148 41.1777 13.7234C41.4029 14.2987 41.7472 14.8207 42.1883 15.2553C42.6295 15.69 43.1576 16.0277 43.7385 16.2466C44.3194 16.4654 44.9401 16.5606 45.5604 16.5258C46.3007 16.5564 47.0361 16.3928 47.6926 16.0514C48.3492 15.7101 48.9037 15.2031 49.3006 14.5813L47.7224 13.413C47.4776 13.7543 47.1528 14.0313 46.7761 14.2198C46.3994 14.4083 45.9821 14.5028 45.5604 14.4951C45.2738 14.5152 44.9861 14.4785 44.714 14.3869C44.4419 14.2953 44.1909 14.1508 43.9756 13.9617C43.7604 13.7726 43.5852 13.5428 43.4604 13.2857C43.3355 13.0286 43.2635 12.7494 43.2485 12.4643H49.5136C49.5136 12.2918 49.5136 12.1271 49.5136 11.9547C49.5136 9.06926 47.9355 7.25021 45.1974 7.25021C42.6646 7.25021 40.8418 9.24176 40.8418 11.9155H40.8813ZM43.351 10.951C43.3694 10.4664 43.5762 10.0077 43.9279 9.67135C44.2796 9.33504 44.7488 9.14732 45.2369 9.14767C45.4811 9.13604 45.7252 9.17357 45.9544 9.25799C46.1837 9.34241 46.3934 9.47199 46.571 9.63895C46.7486 9.80592 46.8904 10.0068 46.9879 10.2296C47.0855 10.4524 47.1367 10.6924 47.1385 10.9354L43.351 10.951ZM50.4526 16.3063H52.662V15.3811C52.9946 15.7455 53.4019 16.0348 53.8565 16.2296C54.3111 16.4243 54.8025 16.52 55.2974 16.5101C57.8461 16.5101 59.6531 14.6048 59.6531 11.8841C59.6531 9.16335 57.9881 7.24237 55.4316 7.24237C54.9343 7.22643 54.4396 7.32092 53.9837 7.51895C53.5278 7.71699 53.1221 8.01358 52.7961 8.38712V4.07471H50.4289V16.3063H50.4526ZM52.733 11.9155C52.733 10.2611 53.7193 9.31232 55.0134 9.31232C56.3074 9.31232 57.2938 10.3787 57.2938 11.9155C57.2938 13.4522 56.339 14.4637 55.0134 14.4637C54.6926 14.4531 54.3773 14.3778 54.0867 14.2424C53.796 14.1069 53.5362 13.9142 53.3229 13.6758C53.1096 13.4375 52.9473 13.1585 52.8459 12.8559C52.7445 12.5533 52.7061 12.2333 52.733 11.9155V11.9155ZM60.5605 19.4426H62.9277V15.3654C63.2573 15.7335 63.664 16.0254 64.1194 16.2204C64.5747 16.4155 65.0675 16.509 65.5631 16.4944C68.1118 16.4944 69.7846 14.5891 69.7846 11.8527C69.7846 9.1163 67.9856 7.22668 65.429 7.22668C64.9323 7.21511 64.4391 7.31158 63.9838 7.50932C63.5286 7.70706 63.1223 8.0013 62.7935 8.37143V7.45407H60.5842V19.4426H60.5605ZM62.8409 11.837C62.814 11.5192 62.8524 11.1992 62.9538 10.8966C63.0552 10.594 63.2175 10.315 63.4308 10.0767C63.6441 9.83831 63.9039 9.64555 64.1945 9.51011C64.4852 9.37467 64.8005 9.29937 65.1213 9.2888C66.4469 9.2888 67.4017 10.2689 67.4017 11.837C67.4017 13.4052 66.4863 14.4402 65.1213 14.4402C63.7562 14.4402 62.8409 13.4914 62.8409 11.837ZM70.1871 13.5463C70.1871 15.4046 71.7178 16.5023 73.5169 16.5023C73.9127 16.5327 74.3105 16.4785 74.6835 16.3432C75.0564 16.208 75.3959 15.9949 75.6789 15.7182L75.8288 16.2906H77.9041V10.7001C77.9041 8.72427 77.0519 7.23453 74.1955 7.23453C72.9517 7.25153 71.7377 7.6156 70.6921 8.28519L71.5758 9.85334C72.304 9.46157 73.1152 9.24663 73.943 9.22608C74.9845 9.22608 75.5211 9.75141 75.5211 10.5276V11.1C74.9492 10.7787 74.2999 10.6187 73.6431 10.6374C71.5679 10.6374 70.1871 11.8135 70.1871 13.5542V13.5463ZM72.5542 13.4758C72.5542 12.7466 73.1855 12.2448 74.085 12.2448C74.9845 12.2448 75.6631 12.6995 75.6631 13.4758C75.6631 14.252 74.9688 14.7381 74.085 14.7381C73.2013 14.7381 72.5069 14.252 72.5069 13.5228L72.5542 13.4758ZM83.6011 14.4402C82.9369 14.4152 82.3076 14.1381 81.8429 13.6658C81.3782 13.1935 81.1136 12.5621 81.1034 11.9017C81.0933 11.2412 81.3385 10.6021 81.7885 10.116C82.2385 9.6299 82.8591 9.33382 83.5222 9.2888C84.2977 9.29604 85.0407 9.59921 85.5974 10.1356L86.2603 8.17542C85.4576 7.55476 84.4682 7.22057 83.4512 7.22668C82.8272 7.20621 82.2057 7.31258 81.6245 7.53928C81.0434 7.76597 80.515 8.10821 80.0718 8.54502C79.6285 8.98183 79.2797 9.504 79.0467 10.0795C78.8137 10.655 78.7014 11.2718 78.7168 11.8919C78.6998 12.51 78.8114 13.1249 79.0446 13.6981C79.2777 14.2714 79.6274 14.7906 80.0719 15.2234C80.5163 15.6561 81.0458 15.9931 81.6272 16.2132C82.2087 16.4332 82.8297 16.5317 83.4512 16.5023C84.4697 16.519 85.4634 16.1898 86.2681 15.5692L85.6369 13.6639C85.0758 14.1457 84.3659 14.4223 83.6248 14.448L83.6011 14.4402ZM87.1282 16.3063H89.4954V11.7351L92.4544 16.3063H95.2082L91.8389 11.4685L94.9952 7.46191H92.3597L89.5033 11.1784V4.07471H87.1361V16.3063H87.1282Z" fill="#1C78C0"/>
</svg>
